<?xml version="1.0" standalone="no"?>
<!DOCTYPE svg PUBLIC "-//W3C//DTD SVG 20010904//EN"
 "http://www.w3.org/TR/2001/REC-SVG-20010904/DTD/svg10.dtd">
<svg version="1.0" xmlns="http://www.w3.org/2000/svg"
 width="500.000000pt" height="500.000000pt" viewBox="0 0 500.000000 500.000000"
 preserveAspectRatio="xMidYMid meet">
<metadata>
Created by potrace 1.14, written by Peter Selinger 2001-2017
</metadata>
<g transform="translate(0.000000,500.000000) scale(0.100000,-0.100000)"
fill="#000000" stroke="none">
<path d="M4004 4705 c-84 -19 -183 -60 -257 -107 -91 -59 -126 -93 -237 -225
-35 -42 -99 -188 -120 -273 -73 -311 52 -655 305 -838 27 -20 52 -39 55 -42
13 -14 172 -81 230 -97 100 -27 311 -25 413 5 129 37 245 102 341 192 56 52
125 139 151 190 10 19 21 37 25 40 3 3 22 50 40 105 33 95 34 107 34 245 1
157 -2 175 -34 265 -12 33 -22 65 -24 70 -1 6 -14 32 -29 57 -15 26 -27 51
-27 56 0 6 -3 12 -7 14 -5 2 -29 30 -56 62 -118 145 -295 253 -471 285 -79 15
-256 12 -332 -4z m303 -220 c254 -60 435 -269 459 -528 19 -217 -95 -437 -287
-550 -100 -59 -176 -79 -299 -79 -79 0 -121 5 -170 21 -185 59 -336 211 -392
396 -33 106 -30 245 6 350 98 288 396 458 683 390z"/>
<path d="M2091 4474 c-64 -23 -110 -55 -159 -110 -58 -66 -55 -61 -76 -127
-27 -86 -19 -205 19 -282 98 -201 350 -274 535 -154 50 33 100 75 100 84 0 4
9 19 19 34 84 118 73 308 -25 434 -40 51 -107 98 -173 122 -56 19 -183 19
-240 -1z m189 -222 c19 -9 45 -33 58 -52 20 -29 23 -44 20 -93 -4 -48 -9 -63
-34 -88 -126 -125 -322 5 -245 163 37 78 125 109 201 70z"/>
<path d="M314 4280 c-71 -15 -137 -52 -195 -110 -75 -75 -103 -144 -103 -260
-1 -74 3 -93 30 -150 48 -103 118 -167 221 -202 179 -62 386 29 463 202 20 46
25 71 25 150 0 84 -3 102 -29 158 -70 152 -253 246 -412 212z m164 -247 c144
-107 0 -338 -158 -254 -53 28 -80 74 -80 138 0 48 4 58 38 94 56 60 137 69
200 22z"/>
<path d="M773 3648 c-38 -27 -52 -82 -33 -129 8 -18 56 -62 134 -120 66 -51
126 -98 132 -106 6 -7 14 -13 17 -13 9 0 232 -171 235 -181 2 -5 8 -9 12 -9
11 0 234 -169 238 -181 2 -5 8 -9 12 -9 11 0 234 -169 238 -181 2 -5 10 -9 18
-9 8 0 17 -7 20 -15 4 -8 10 -15 14 -15 5 0 60 -39 122 -86 112 -86 113 -86
108 -123 -18 -130 9 -267 70 -365 l30 -47 -51 -62 c-29 -34 -58 -69 -65 -77
-31 -34 -160 -197 -175 -220 -23 -37 -9 -97 30 -132 58 -52 125 -33 193 56 26
33 63 79 82 101 19 22 63 74 97 115 34 41 67 74 73 73 6 -1 43 -11 81 -23 52
-15 92 -20 155 -18 83 2 94 5 232 61 15 6 62 47 105 92 l78 81 349 -118 c191
-65 359 -118 373 -118 37 0 81 27 98 60 37 71 1 134 -95 168 -36 12 -72 25
-80 29 -8 3 -21 7 -29 9 -7 1 -134 44 -280 94 l-267 91 4 28 c7 47 -17 172
-45 234 l-27 59 40 34 c21 18 42 33 46 34 4 0 15 8 25 18 15 15 210 176 400
329 90 72 50 203 -61 203 -39 0 -53 -9 -162 -95 -65 -52 -126 -100 -134 -107
-8 -7 -44 -37 -80 -66 -36 -28 -72 -58 -80 -66 -8 -8 -46 -39 -84 -69 l-68
-54 -42 22 c-43 25 -131 52 -180 57 -16 2 -31 10 -32 18 -2 8 -26 114 -53 235
-27 121 -52 234 -55 250 -14 79 -48 210 -60 234 -28 53 -122 70 -165 30 -53
-50 -53 -53 20 -381 38 -166 70 -316 73 -332 3 -17 8 -44 12 -61 5 -28 2 -32
-43 -55 -26 -14 -70 -45 -96 -70 -45 -41 -50 -43 -62 -27 -7 9 -15 17 -18 17
-9 0 -232 171 -235 181 -2 5 -8 9 -12 9 -11 0 -234 169 -238 181 -2 5 -8 9
-13 9 -12 0 -233 169 -237 181 -2 5 -10 9 -18 9 -8 0 -17 7 -20 15 -4 8 -10
15 -14 15 -12 0 -234 169 -238 181 -2 5 -8 9 -12 9 -5 0 -50 32 -101 70 -79
61 -97 70 -133 70 -27 0 -52 -8 -73 -22z m1877 -1009 c97 -43 159 -132 168
-236 6 -80 -10 -137 -57 -199 -124 -165 -382 -139 -475 48 -21 41 -26 67 -26
123 0 165 118 285 280 285 44 0 80 -7 110 -21z"/>
<path d="M4184 2150 c-162 -17 -296 -136 -334 -297 -37 -159 52 -343 200 -411
84 -39 94 -42 165 -43 65 -1 169 28 207 59 73 59 101 91 130 150 31 62 33 74
33 167 0 87 -3 107 -26 156 -69 146 -220 235 -375 219z m89 -234 c107 -44 127
-185 36 -258 -51 -41 -102 -46 -158 -16 -109 58 -109 210 -1 266 51 25 78 27
123 8z"/>
<path d="M1273 1667 c-140 -29 -210 -57 -313 -125 -119 -78 -241 -257 -274
-400 -8 -37 -16 -107 -16 -157 -4 -197 60 -355 200 -496 90 -91 166 -140 281
-182 53 -19 89 -24 182 -26 64 -1 143 3 174 9 106 22 264 108 359 195 35 33
121 171 144 233 98 260 41 547 -148 739 -73 74 -194 157 -247 169 -5 1 -46 12
-90 24 -87 23 -191 30 -252 17z m244 -247 c327 -111 425 -544 176 -781 -111
-106 -216 -146 -358 -136 -143 9 -262 73 -347 184 -58 77 -87 155 -95 252 -10
140 30 251 130 358 129 138 314 184 494 123z"/>
</g>
</svg>
